<svg width="108" height="108" viewBox="0 0 108 108" fill="none" xmlns="http://www.w3.org/2000/svg">
<mask id="mask0_12_2" style="mask-type:alpha" maskUnits="userSpaceOnUse" x="0" y="0" width="108" height="108">
<path d="M54 108C83.8234 108 108 83.8234 108 54C108 24.1766 83.8234 0 54 0C24.1766 0 0 24.1766 0 54C0 83.8234 24.1766 108 54 108Z" fill="white"/>
</mask>
<g mask="url(#mask0_12_2)">
<path d="M54 108C83.8234 108 108 83.8234 108 54C108 24.1766 83.8234 0 54 0C24.1766 0 0 24.1766 0 54C0 83.8234 24.1766 108 54 108Z" fill="#88D7FF"/>
<path fill-rule="evenodd" clip-rule="evenodd" d="M75.6356 97.7526C63.8532 92.8517 59.973 86.7628 60.9789 78H48.0211C49.027 86.7628 45.1474 92.8517 33.3637 97.7526C21.5807 102.653 20 108 20 108H89C89 108 87.4193 102.653 75.6356 97.7526Z" fill="#003554"/>
<path fill-rule="evenodd" clip-rule="evenodd" d="M54.9997 100C59.9037 100 64.243 96.8317 66 92.0534C65.6433 91.7086 65.3118 91.357 64.9982 91.0007H64.9989C63.6204 95.4362 59.668 98.6425 54.9997 98.6425C50.332 98.6425 46.3789 95.4362 45.0011 91.0007L45.0018 91C44.6889 91.3563 44.356 91.7086 44 92.0534C45.7576 96.8317 50.0957 100 54.9997 100Z" fill="#FFFFFE"/>
<path fill-rule="evenodd" clip-rule="evenodd" d="M65 90.5227C61.8642 87.0261 60.8546 82.9444 61.4238 78H48.5762C49.1447 82.9444 48.1351 87.0261 45 90.5227C46.3786 94.8627 50.3314 98 54.9997 98C59.6686 98 63.6214 94.8627 65 90.5227Z" fill="#E46B6A"/>
<path fill-rule="evenodd" clip-rule="evenodd" d="M65 90.6207C61.8731 87.0968 60.8666 82.9817 61.4349 78H48.5786C49.1476 82.9897 48.1372 87.1088 45 90.6375L45.0387 90.7474C47.7159 91.5536 50.8885 92 54.6643 92C58.7835 92 62.1849 91.5074 65 90.6207Z" fill="#E05A5B"/>
<path fill-rule="evenodd" clip-rule="evenodd" d="M30.8129 68C30.8129 68 29.7181 53.6819 42.8518 48.6783C55.9855 43.6747 63.6468 39.8678 64.1942 29.9696C64.1942 29.9696 68.2985 38.5986 64.1942 44.4359C64.1942 44.4359 69.1192 44.6899 69.94 41.3903C69.94 41.3903 71.8555 46.8294 71.0347 48.6783C71.0347 48.6783 73.4969 48.4968 73.7709 44.9439L75.4124 63.725L76.5072 68L80.519 54.7069C80.519 54.7069 91.0155 29.9696 68.8282 23.5016C68.8282 23.5016 50.1945 7.38093 30.7906 25.9081C30.7906 25.9081 15.1305 38.357 25.6138 57.8877L30.8129 68Z" fill="#302C3F"/>
<path fill-rule="evenodd" clip-rule="evenodd" d="M31.1317 25.7912C31.1317 25.7912 24.9931 30.6318 23 39C25.0159 35.6567 31.9207 25.442 42.7248 22.2353C55.71 18.3798 69 23.4163 69 23.4163C69 23.4163 50.4492 7.50718 31.1317 25.7912Z" fill="#4F4B67"/>
<path fill-rule="evenodd" clip-rule="evenodd" d="M82.8454 45L82.8461 44.9981C83.6129 37.5254 81.8901 27.6948 69 24C69 24 83.236 32.8007 82.8454 45Z" fill="#4F4B67"/>
<path fill-rule="evenodd" clip-rule="evenodd" d="M32.2992 71C32.2992 71 26.6375 55.0306 33.083 46L37 57.8484L32.2992 71Z" fill="#302C3F"/>
<path fill-rule="evenodd" clip-rule="evenodd" d="M74.8043 73C74.8043 73 81.8446 68.6958 77.6856 49L69 51.7562L74.8043 73Z" fill="#302C3F"/>
<path fill-rule="evenodd" clip-rule="evenodd" d="M75.3579 64.1331L73.7239 45.1418C73.4511 48.7345 71.0001 48.918 71.0001 48.918C71.8171 47.0484 69.9104 41.5485 69.9104 41.5485C69.0934 44.885 64.1908 44.6282 64.1908 44.6282C68.2757 38.7256 64.1908 30 64.1908 30C63.6459 40.0089 56.0195 43.8584 42.9456 48.918C33.1841 52.6956 31.3198 61.7222 31 66.0542C31.3524 78.0015 34.8703 89 53.5998 89C69.9195 89 74.6172 81.2376 75.8375 71.7932C76.1677 69.235 75.9882 66.6332 75.3579 64.1331Z" fill="#EE9F79"/>
<path fill-rule="evenodd" clip-rule="evenodd" d="M66 58.9997C66 60.657 65.3279 62 64.5004 62C63.6721 62 63.0007 60.657 63 58.9997C63.0007 57.343 63.6721 56 64.5004 56C65.3279 56 66 57.343 66 58.9997Z" fill="#150E18"/>
<path fill-rule="evenodd" clip-rule="evenodd" d="M42 59C41.9993 60.6575 42.6715 62 43.5 62C44.3285 62 45 60.6575 45 59C45 57.3425 44.3285 56 43.5 56C42.6715 56 41.9993 57.3425 42 59Z" fill="#150E18"/>
<path fill-rule="evenodd" clip-rule="evenodd" d="M38 55C38 55 46.0007 52.4584 50 52.6851C50 52.6851 49.3251 48.3174 44.5489 49.0921C38.8856 50.0105 38 55 38 55Z" fill="#302C3F"/>
<path fill-rule="evenodd" clip-rule="evenodd" d="M70 53C70 53 61.8792 51.4471 58 52.1258C58 52.1258 58.1331 47.8025 62.8923 48.007C68.5335 48.2494 70 53 70 53Z" fill="#302C3F"/>
<path fill-rule="evenodd" clip-rule="evenodd" d="M57 64.8797C57 66.6024 55.8809 68 54.5003 68C53.1191 68 52 66.6024 52 64.8797C52 63.1552 53.1191 61 54.5003 61C55.8809 61 57 63.1552 57 64.8797Z" fill="#DF4F4B"/>
<path fill-rule="evenodd" clip-rule="evenodd" d="M55.3428 73C49.2435 73 45.45 70.2581 45.2527 70.1114C44.9655 69.8996 44.9154 69.5085 45.1422 69.2375C45.3684 68.9677 45.7855 68.9212 46.0728 69.1318C46.1287 69.1735 51.7678 73.2209 60.1684 71.1537C60.5212 71.0692 60.8849 71.266 60.9781 71.5992C61.0713 71.9323 60.8586 72.2727 60.5038 72.3596C58.6447 72.8171 56.9166 73 55.3428 73Z" fill="#DF4F4B"/>
<path fill-rule="evenodd" clip-rule="evenodd" d="M64.511 30.4885L64.496 30.4565L64.489 30.5435L64.511 30.4885Z" fill="#F0AC8A"/>
<path fill-rule="evenodd" clip-rule="evenodd" d="M53.97 84.4124C42.2769 84.4124 36.1504 80.5921 33 75C35.0694 82.9868 40.4955 89 53.9604 89C67.7095 89 73.0251 83.172 75 75.4491C71.8962 80.7786 65.7978 84.4124 53.97 84.4124Z" fill="#F0AA87"/>
</g>
<path fill-rule="evenodd" clip-rule="evenodd" d="M43.5006 52C38.8133 52 35 55.8133 35 60.5C35 65.1873 38.8133 69 43.5006 69C48.1867 69 52 65.1873 52 60.5C52 55.8133 48.1867 52 43.5006 52ZM43.5006 52.675C47.8217 52.675 51.325 56.1783 51.325 60.5C51.325 64.8217 47.8217 68.325 43.5006 68.325C39.1783 68.325 35.675 64.8217 35.675 60.5C35.675 56.1783 39.1783 52.675 43.5006 52.675Z" fill="#24111A"/>
<path fill-rule="evenodd" clip-rule="evenodd" d="M65.5003 52C60.8132 52 57 55.8133 57 60.5C57 65.1873 60.8132 69 65.5003 69C70.1862 69 74 65.1873 74 60.5C74 55.8133 70.1862 52 65.5003 52ZM65.5003 52.675C69.8213 52.675 73.3244 56.1783 73.3244 60.5C73.3244 64.8217 69.8213 68.325 65.5003 68.325C61.1787 68.325 57.675 64.8217 57.675 60.5C57.675 56.1783 61.1787 52.675 65.5003 52.675Z" fill="#24111A"/>
<path fill-rule="evenodd" clip-rule="evenodd" d="M51.5759 59L51 58.3732C51.0301 58.3459 54.0613 55.6761 58 57.855L57.5826 58.5941C54.1791 56.7119 51.6022 58.9777 51.5759 59Z" fill="#24111A"/>
</svg>
