<svg width="32" height="11" viewBox="0 0 32 11" fill="none" xmlns="http://www.w3.org/2000/svg">
<path d="M17.5068 9.97949L13.2549 10.0615C13.0817 8.3252 12.9769 7.12435 12.9404 6.45898L12.8789 5.37891L10.0488 9.85645C8.88216 9.85645 8.21452 9.85189 8.0459 9.84277C7.13444 8.03809 6.45768 6.64355 6.01562 5.65918L5.5166 10.0273C5.05632 10.041 4.39095 10.0479 3.52051 10.0479C2.65462 10.0479 1.78646 10.0228 0.916016 9.97266L1.00488 8.81738C1.0778 8.06543 1.24414 5.18522 1.50391 0.176758H1.53809C3.54785 0.176758 5.25228 0.153971 6.65137 0.108398L6.89746 0.634766L9.09863 4.6748L11.792 0.0605469L16.8027 0.046875C16.8346 0.529948 16.9782 2.52604 17.2334 6.03516L17.459 9.13867L17.5068 9.97949ZM30.8779 10.041H21.2598C20.4987 10.041 19.9199 10.0273 19.5234 10L19.5508 8.33887L19.6055 6.10352C19.6146 5.97591 19.6533 5.09408 19.7217 3.45801C19.7946 1.81738 19.8493 0.72819 19.8857 0.19043C20.5739 0.112956 21.4261 0.0742188 22.4424 0.0742188C23.4632 0.0742188 24.3063 0.078776 24.9717 0.0878906L24.8145 3.50586C24.8053 3.95703 24.7484 5.30143 24.6436 7.53906L29.9141 7.41602C30.4427 7.41602 30.8734 7.44108 31.2061 7.49121C31.2061 7.78288 31.1696 8.16341 31.0967 8.63281L30.8779 10.041Z" fill="#003554"/>
</svg>
