<svg width="80" height="80" viewBox="0 0 80 80" fill="none" xmlns="http://www.w3.org/2000/svg">
<path d="M0 40C0 17.9121 17.9121 0 40 0C62.0879 0 80 17.9121 80 40C80 62.0879 62.0879 80 40 80C17.9121 80 0 62.0879 0 40Z" fill="#D0E4F2"/>
<path d="M30.2137 42.3216C30.2137 42.3216 30.4716 40.8544 31.0037 39.1293C30.8586 38.4522 30.7296 37.7589 30.6006 37.0334C30.6006 37.0334 28.0532 24.8286 23.7324 24.8286C19.4277 24.8286 17.2673 37.0334 17.2673 37.0334C14.333 53.5106 8.44824 54.5424 8.44824 54.5424H23.9904C24.0065 54.5424 28.15 53.9298 30.2137 42.3216Z" fill="#282D4D"/>
<path d="M40.2579 45.3528C40.0322 44.4338 39.8065 43.4342 39.613 42.3218C39.613 42.3218 37.8234 33.8413 34.7763 33.8413C33.0028 33.8413 31.7452 36.7272 31.0036 39.1295C32.5675 46.5297 34.7279 50.3991 36.4691 52.3983C37.6461 51.0602 39.0165 48.8836 40.2579 45.3528Z" fill="#5B84CB"/>
<path opacity="0.9" d="M36.4853 52.3982C34.7441 50.399 32.5675 46.5296 31.0198 39.1294C30.4877 40.8545 30.2298 42.3217 30.2298 42.3217C28.1661 53.9299 24.0065 54.5425 24.0065 54.5425H33.551C33.5349 54.5425 34.8247 54.3168 36.4853 52.3982Z" fill="#16193B"/>
<path d="M36.4853 52.3982C34.7441 50.399 32.5675 46.5296 31.0198 39.1294C30.4877 40.8545 30.2298 42.3217 30.2298 42.3217C28.1661 53.9299 24.0065 54.5425 24.0065 54.5425H33.551C33.5349 54.5425 34.8247 54.3168 36.4853 52.3982Z" fill="#4A72BB"/>
<path d="M55.3003 42.3216C55.3003 42.3216 55.5582 40.8544 56.0903 39.1293C55.9452 38.4522 55.8162 37.7589 55.6872 37.0334C55.6872 37.0334 53.1398 24.8286 48.819 24.8286C44.5143 24.8286 42.3539 37.0334 42.3539 37.0334C41.7573 40.4191 41.0157 43.1438 40.2418 45.3526C42.4184 54.0426 45.8202 54.5424 45.8202 54.5424H49.0931C49.0931 54.5424 53.2366 53.9298 55.3003 42.3216Z" fill="#445696"/>
<path opacity="0.9" d="M40.258 45.3528C39.0165 48.8836 37.6622 51.0602 36.4853 52.3983C38.1459 54.3008 39.4196 54.5265 39.4196 54.5265H45.8202C45.8202 54.5426 42.4345 54.0428 40.258 45.3528Z" fill="#4E7AC7"/>
<path d="M40.258 45.3528C39.0165 48.8836 37.6622 51.0602 36.4853 52.3983C38.1459 54.3008 39.4196 54.5265 39.4196 54.5265H45.8202C45.8202 54.5426 42.4345 54.0428 40.258 45.3528Z" fill="#394D92"/>
<path d="M36.4853 52.3982C34.8246 54.3007 33.551 54.5264 33.551 54.5264H39.4357C39.4196 54.5425 38.1459 54.3168 36.4853 52.3982Z" fill="#16193B"/>
<path d="M36.4853 52.3982C34.8246 54.3007 33.551 54.5264 33.551 54.5264H39.4357C39.4196 54.5425 38.1459 54.3168 36.4853 52.3982Z" fill="#4E7AC7"/>
<path d="M36.4853 52.3982C34.8246 54.3007 33.551 54.5264 33.551 54.5264H39.4357C39.4196 54.5425 38.1459 54.3168 36.4853 52.3982Z" fill="#394D92"/>
<path d="M64.6997 42.3218C64.6997 42.3218 62.9101 33.8413 59.8629 33.8413C58.0895 33.8413 56.8319 36.7272 56.0903 39.1295C59.1374 53.5914 64.5062 54.5426 64.5062 54.5426H70.9069C70.923 54.5426 66.7634 53.93 64.6997 42.3218Z" fill="#87B7F0"/>
<path d="M56.0903 39.1294C55.5582 40.8545 55.3003 42.3217 55.3003 42.3217C53.2366 53.9299 49.077 54.5425 49.077 54.5425H64.5062C64.5062 54.5425 59.1374 53.5913 56.0903 39.1294Z" fill="#79A9E7"/>
</svg>
