<svg width="80" height="80" viewBox="0 0 80 80" fill="none" xmlns="http://www.w3.org/2000/svg">
<path d="M0 9.78467V50.007L40.0002 55.2964L80 50.007V9.78467H0Z" fill="#F2EBD9"/>
<path d="M40 7.21434C38.9122 5.57464 37.0486 4.49561 34.9346 4.49561H5.17834V50.0071L41.7635 53.5334C41.7635 53.5334 40.0004 7.21381 40 7.21434Z" fill="#FFCC75"/>
<path d="M74.8217 4.49536H45.0672C42.9517 4.49536 41.09 5.57422 40.0004 7.21375V53.5331L74.8217 50.0069V4.49536Z" fill="white"/>
<path d="M47.9344 61.5046H32.0663V74.1822H47.9344V61.5046Z" fill="#C1E8E6"/>
<path d="M54.9869 75.5045H25.0137C24.2833 75.5045 23.6914 74.9125 23.6914 74.1822C23.6914 73.4519 24.2833 72.8599 25.0137 72.8599H54.9869C55.7173 72.8599 56.3092 73.4519 56.3092 74.1822C56.3092 74.9125 55.7173 75.5045 54.9869 75.5045Z" fill="#98D9D5"/>
<path d="M80 50.0071V56.215C80 59.1242 77.6198 61.5044 74.7106 61.5044H5.28937C2.38022 61.5044 0 59.1242 0 56.215V50.0071H5.1783H74.8217H80Z" fill="#98D9D5"/>
<path d="M32.612 12.8695H12.3422C11.6118 12.8695 11.0199 12.2775 11.0199 11.5472C11.0199 10.8169 11.6118 10.2249 12.3422 10.2249H32.612C33.3425 10.2249 33.9343 10.8169 33.9343 11.5472C33.9343 12.2775 33.3423 12.8695 32.612 12.8695Z" fill="#6DA8D6"/>
<path d="M32.612 19.151H12.3422C11.6118 19.151 11.0199 18.559 11.0199 17.8287C11.0199 17.0984 11.6118 16.5063 12.3422 16.5063H32.612C33.3425 16.5063 33.9343 17.0984 33.9343 17.8287C33.9343 18.559 33.3423 19.151 32.612 19.151Z" fill="#6DA8D6"/>
<path d="M22.477 25.4325H12.3422C11.6118 25.4325 11.0199 24.8405 11.0199 24.1102C11.0199 23.3799 11.6118 22.7878 12.3422 22.7878H22.477C23.2075 22.7878 23.7994 23.3799 23.7994 24.1102C23.7994 24.8405 23.2075 25.4325 22.477 25.4325Z" fill="#6DA8D6"/>
<path d="M32.612 31.7143H12.3422C11.6118 31.7143 11.0199 31.1222 11.0199 30.3919C11.0199 29.6616 11.6118 29.0696 12.3422 29.0696H32.612C33.3425 29.0696 33.9343 29.6616 33.9343 30.3919C33.9343 31.1222 33.3423 31.7143 32.612 31.7143Z" fill="#6DA8D6"/>
<path d="M32.612 37.996H12.3422C11.6118 37.996 11.0199 37.4039 11.0199 36.6737C11.0199 35.9434 11.6118 35.3513 12.3422 35.3513H32.612C33.3425 35.3513 33.9343 35.9434 33.9343 36.6737C33.9343 37.4039 33.3423 37.996 32.612 37.996Z" fill="#6DA8D6"/>
<path d="M22.477 44.2775H12.3422C11.6118 44.2775 11.0199 43.6854 11.0199 42.9552C11.0199 42.2249 11.6118 41.6328 12.3422 41.6328H22.477C23.2075 41.6328 23.7994 42.2249 23.7994 42.9552C23.7994 43.6854 23.2075 44.2775 22.477 44.2775Z" fill="#6DA8D6"/>
<path d="M67.6583 12.8695H47.3887C46.6583 12.8695 46.0664 12.2775 46.0664 11.5472C46.0664 10.8169 46.6583 10.2249 47.3887 10.2249H67.6583C68.3888 10.2249 68.9807 10.8169 68.9807 11.5472C68.9807 12.2775 68.3888 12.8695 67.6583 12.8695Z" fill="#6DA8D6"/>
<path d="M67.6583 19.151H47.3887C46.6583 19.151 46.0664 18.559 46.0664 17.8287C46.0664 17.0984 46.6583 16.5063 47.3887 16.5063H67.6583C68.3888 16.5063 68.9807 17.0984 68.9807 17.8287C68.9807 18.559 68.3888 19.151 67.6583 19.151Z" fill="#6DA8D6"/>
<path d="M57.5235 25.4325H47.3889C46.6584 25.4325 46.0665 24.8405 46.0665 24.1102C46.0665 23.3799 46.6584 22.7878 47.3889 22.7878H57.5235C58.2539 22.7878 58.8458 23.3799 58.8458 24.1102C58.8458 24.8405 58.2538 25.4325 57.5235 25.4325Z" fill="#6DA8D6"/>
<path d="M67.6583 31.7143H47.3887C46.6583 31.7143 46.0664 31.1222 46.0664 30.3919C46.0664 29.6616 46.6583 29.0696 47.3887 29.0696H67.6583C68.3888 29.0696 68.9807 29.6616 68.9807 30.3919C68.9807 31.1222 68.3888 31.7143 67.6583 31.7143Z" fill="#6DA8D6"/>
<path d="M67.6583 37.996H47.3887C46.6583 37.996 46.0664 37.4039 46.0664 36.6737C46.0664 35.9434 46.6583 35.3513 47.3887 35.3513H67.6583C68.3888 35.3513 68.9807 35.9434 68.9807 36.6737C68.9807 37.4039 68.3888 37.996 67.6583 37.996Z" fill="#6DA8D6"/>
<path d="M57.5235 44.2775H47.3889C46.6584 44.2775 46.0665 43.6854 46.0665 42.9552C46.0665 42.2249 46.6584 41.6328 47.3889 41.6328H57.5235C58.2539 41.6328 58.8458 42.2249 58.8458 42.9552C58.8458 43.6854 58.2538 44.2775 57.5235 44.2775Z" fill="#6DA8D6"/>
</svg>
